<mxfile host="app.diagrams.net" agent="Mozilla/5.0 (X11; Linux x86_64) AppleWebKit/537.36 (KHTML, like Gecko) Chrome/129.0.0.0 Safari/537.36" version="24.8.3">
  <diagram name="Pàgina-1" id="mhbHxmUa4zc_a_H4eHv1">
    <mxGraphModel dx="2074" dy="1146" grid="1" gridSize="10" guides="1" tooltips="1" connect="1" arrows="1" fold="1" page="1" pageScale="1" pageWidth="827" pageHeight="1169" math="0" shadow="0">
      <root>
        <mxCell id="0" />
        <mxCell id="1" parent="0" />
        <mxCell id="gj7dvYsNSeR0b3cTl4Mi-1" value="&lt;i style=&quot;font-size: 16px;&quot;&gt;&lt;font style=&quot;font-size: 12px;&quot;&gt;Merge commit&lt;/font&gt;&lt;/i&gt;" style="ellipse;whiteSpace=wrap;html=1;fillColor=#f5f5f5;fontColor=#333333;strokeColor=#666666;" vertex="1" parent="1">
          <mxGeometry x="250" y="715" width="60" height="60" as="geometry" />
        </mxCell>
        <mxCell id="gj7dvYsNSeR0b3cTl4Mi-2" style="rounded=0;orthogonalLoop=1;jettySize=auto;html=1;" edge="1" parent="1" source="gj7dvYsNSeR0b3cTl4Mi-3" target="gj7dvYsNSeR0b3cTl4Mi-1">
          <mxGeometry relative="1" as="geometry" />
        </mxCell>
        <mxCell id="gj7dvYsNSeR0b3cTl4Mi-3" value="&lt;i style=&quot;font-size: 16px;&quot;&gt;&lt;font style=&quot;font-size: 12px;&quot;&gt;Beguda desdejuni&lt;/font&gt;&lt;/i&gt;" style="ellipse;whiteSpace=wrap;html=1;fillColor=#f5f5f5;fontColor=#333333;strokeColor=#666666;" vertex="1" parent="1">
          <mxGeometry x="490" y="715" width="60" height="60" as="geometry" />
        </mxCell>
        <mxCell id="gj7dvYsNSeR0b3cTl4Mi-4" style="rounded=0;orthogonalLoop=1;jettySize=auto;html=1;exitX=0.5;exitY=1;exitDx=0;exitDy=0;fillColor=#dae8fc;strokeColor=#6c8ebf;" edge="1" parent="1" source="gj7dvYsNSeR0b3cTl4Mi-5" target="gj7dvYsNSeR0b3cTl4Mi-3">
          <mxGeometry relative="1" as="geometry">
            <mxPoint x="479" y="735" as="targetPoint" />
          </mxGeometry>
        </mxCell>
        <mxCell id="gj7dvYsNSeR0b3cTl4Mi-5" value="desdejuni" style="ellipse;whiteSpace=wrap;html=1;fillColor=#dae8fc;strokeColor=#6c8ebf;fontSize=16;fontStyle=1" vertex="1" parent="1">
          <mxGeometry x="400" y="650" width="100" height="40" as="geometry" />
        </mxCell>
        <mxCell id="gj7dvYsNSeR0b3cTl4Mi-6" value="&lt;i style=&quot;font-size: 16px;&quot;&gt;&lt;font style=&quot;font-size: 12px;&quot;&gt;Menjar paella&lt;/font&gt;&lt;/i&gt;" style="ellipse;whiteSpace=wrap;html=1;fillColor=#f5f5f5;fontColor=#333333;strokeColor=#666666;opacity=50;dashed=1;textOpacity=50;" vertex="1" parent="1">
          <mxGeometry x="490" y="875" width="60" height="60" as="geometry" />
        </mxCell>
        <mxCell id="gj7dvYsNSeR0b3cTl4Mi-7" style="rounded=0;orthogonalLoop=1;jettySize=auto;html=1;exitX=0.5;exitY=1;exitDx=0;exitDy=0;fillColor=#dae8fc;strokeColor=#6c8ebf;opacity=50;dashed=1;textOpacity=50;" edge="1" parent="1" source="gj7dvYsNSeR0b3cTl4Mi-8" target="gj7dvYsNSeR0b3cTl4Mi-6">
          <mxGeometry relative="1" as="geometry">
            <mxPoint x="439" y="880" as="targetPoint" />
          </mxGeometry>
        </mxCell>
        <mxCell id="gj7dvYsNSeR0b3cTl4Mi-8" value="paella" style="ellipse;whiteSpace=wrap;html=1;fillColor=#dae8fc;strokeColor=#6c8ebf;fontSize=16;fontStyle=1;opacity=50;dashed=1;textOpacity=50;" vertex="1" parent="1">
          <mxGeometry x="470" y="805" width="100" height="40" as="geometry" />
        </mxCell>
        <mxCell id="gj7dvYsNSeR0b3cTl4Mi-9" style="rounded=0;orthogonalLoop=1;jettySize=auto;html=1;opacity=50;dashed=1;textOpacity=50;" edge="1" parent="1" source="gj7dvYsNSeR0b3cTl4Mi-6" target="gj7dvYsNSeR0b3cTl4Mi-1">
          <mxGeometry relative="1" as="geometry">
            <mxPoint x="525" y="693.5" as="sourcePoint" />
            <mxPoint x="377" y="836.5" as="targetPoint" />
          </mxGeometry>
        </mxCell>
        <mxCell id="gj7dvYsNSeR0b3cTl4Mi-10" value="&lt;font color=&quot;#0066cc&quot; style=&quot;font-size: 14px;&quot;&gt;&lt;b&gt;Ancestre comú&lt;/b&gt;&lt;/font&gt;" style="text;html=1;strokeColor=none;fillColor=none;align=center;verticalAlign=middle;whiteSpace=wrap;rounded=0;fontStyle=2" vertex="1" parent="1">
          <mxGeometry x="250" y="790" width="60" height="30" as="geometry" />
        </mxCell>
        <mxCell id="gj7dvYsNSeR0b3cTl4Mi-11" style="rounded=0;orthogonalLoop=1;jettySize=auto;html=1;exitX=0.5;exitY=1;exitDx=0;exitDy=0;fillColor=#d5e8d4;strokeColor=#82b366;" edge="1" parent="1" source="gj7dvYsNSeR0b3cTl4Mi-12" target="gj7dvYsNSeR0b3cTl4Mi-3">
          <mxGeometry relative="1" as="geometry">
            <mxPoint x="755" y="715" as="targetPoint" />
          </mxGeometry>
        </mxCell>
        <mxCell id="gj7dvYsNSeR0b3cTl4Mi-12" value="main" style="ellipse;whiteSpace=wrap;html=1;fillColor=#d5e8d4;strokeColor=#82b366;fontSize=16;fontStyle=1" vertex="1" parent="1">
          <mxGeometry x="540" y="650" width="100" height="40" as="geometry" />
        </mxCell>
        <mxCell id="gj7dvYsNSeR0b3cTl4Mi-13" style="edgeStyle=orthogonalEdgeStyle;rounded=0;orthogonalLoop=1;jettySize=auto;html=1;exitX=0.5;exitY=1;exitDx=0;exitDy=0;fillColor=#f5f5f5;strokeColor=#666666;" edge="1" parent="1" source="gj7dvYsNSeR0b3cTl4Mi-14" target="gj7dvYsNSeR0b3cTl4Mi-12">
          <mxGeometry relative="1" as="geometry">
            <mxPoint x="590" y="650" as="targetPoint" />
          </mxGeometry>
        </mxCell>
        <mxCell id="gj7dvYsNSeR0b3cTl4Mi-14" value="HEAD" style="ellipse;whiteSpace=wrap;html=1;fillColor=#f5f5f5;strokeColor=#666666;fontSize=16;fontStyle=1;fontColor=#333333;" vertex="1" parent="1">
          <mxGeometry x="540" y="580" width="100" height="40" as="geometry" />
        </mxCell>
        <mxCell id="gj7dvYsNSeR0b3cTl4Mi-15" value="&lt;i style=&quot;font-size: 16px;&quot;&gt;&lt;font style=&quot;font-size: 12px;&quot;&gt;...&lt;/font&gt;&lt;/i&gt;" style="ellipse;whiteSpace=wrap;html=1;fillColor=#f5f5f5;fontColor=#333333;strokeColor=#666666;" vertex="1" parent="1">
          <mxGeometry x="120" y="715" width="60" height="60" as="geometry" />
        </mxCell>
        <mxCell id="gj7dvYsNSeR0b3cTl4Mi-16" style="rounded=0;orthogonalLoop=1;jettySize=auto;html=1;" edge="1" parent="1" source="gj7dvYsNSeR0b3cTl4Mi-1" target="gj7dvYsNSeR0b3cTl4Mi-15">
          <mxGeometry relative="1" as="geometry">
            <mxPoint x="500" y="755" as="sourcePoint" />
            <mxPoint x="320" y="755" as="targetPoint" />
          </mxGeometry>
        </mxCell>
        <mxCell id="gj7dvYsNSeR0b3cTl4Mi-17" value="&lt;i style=&quot;font-size: 16px;&quot;&gt;&lt;font style=&quot;font-size: 12px;&quot;&gt;Menjar paella&lt;/font&gt;&lt;/i&gt;" style="ellipse;whiteSpace=wrap;html=1;fillColor=#f5f5f5;fontColor=#333333;strokeColor=#666666;" vertex="1" parent="1">
          <mxGeometry x="710" y="715" width="60" height="60" as="geometry" />
        </mxCell>
        <mxCell id="gj7dvYsNSeR0b3cTl4Mi-18" style="rounded=0;orthogonalLoop=1;jettySize=auto;html=1;exitX=0.5;exitY=1;exitDx=0;exitDy=0;fillColor=#dae8fc;strokeColor=#6c8ebf;" edge="1" parent="1" source="gj7dvYsNSeR0b3cTl4Mi-19" target="gj7dvYsNSeR0b3cTl4Mi-17">
          <mxGeometry relative="1" as="geometry">
            <mxPoint x="659" y="720" as="targetPoint" />
          </mxGeometry>
        </mxCell>
        <mxCell id="gj7dvYsNSeR0b3cTl4Mi-19" value="paella" style="ellipse;whiteSpace=wrap;html=1;fillColor=#dae8fc;strokeColor=#6c8ebf;fontSize=16;fontStyle=1" vertex="1" parent="1">
          <mxGeometry x="690" y="645" width="100" height="40" as="geometry" />
        </mxCell>
        <mxCell id="gj7dvYsNSeR0b3cTl4Mi-20" style="rounded=0;orthogonalLoop=1;jettySize=auto;html=1;" edge="1" parent="1" source="gj7dvYsNSeR0b3cTl4Mi-17" target="gj7dvYsNSeR0b3cTl4Mi-3">
          <mxGeometry relative="1" as="geometry">
            <mxPoint x="730" y="533.5" as="sourcePoint" />
            <mxPoint x="510" y="602" as="targetPoint" />
          </mxGeometry>
        </mxCell>
        <mxCell id="gj7dvYsNSeR0b3cTl4Mi-22" value="" style="curved=1;endArrow=classic;html=1;rounded=0;strokeWidth=3;fillColor=#dae8fc;strokeColor=#0066CC;" edge="1" parent="1">
          <mxGeometry width="50" height="50" relative="1" as="geometry">
            <mxPoint x="630" y="905" as="sourcePoint" />
            <mxPoint x="740" y="780" as="targetPoint" />
            <Array as="points">
              <mxPoint x="530" y="905" />
              <mxPoint x="630" y="905" />
              <mxPoint x="750" y="905" />
            </Array>
          </mxGeometry>
        </mxCell>
        <mxCell id="gj7dvYsNSeR0b3cTl4Mi-23" value="&lt;font color=&quot;#0066cc&quot; style=&quot;font-size: 14px;&quot;&gt;&lt;b&gt;La història de la branca &#39;paella&#39; canvia&lt;/b&gt;&lt;/font&gt;" style="text;html=1;strokeColor=none;fillColor=none;align=center;verticalAlign=middle;whiteSpace=wrap;rounded=0;fontStyle=2" vertex="1" parent="1">
          <mxGeometry x="610" y="840" width="100" height="30" as="geometry" />
        </mxCell>
      </root>
    </mxGraphModel>
  </diagram>
</mxfile>
